<svg width="509" height="448" viewBox="0 0 509 448" fill="none" xmlns="http://www.w3.org/2000/svg">
    <path d="M0 24C0 10.7452 10.7452 0 24 0H485C498.255 0 509 10.7452 509 24V448H0V24Z" fill="#1E1D29" />
    <path d="M157 0H485C498.255 0 509 10.7452 509 24V448H157V0Z" fill="#EEEEEE" />
    <rect x="21" y="17" width="13.7328" height="13.7328" fill="white" />
    <path d="M50.2457 17L58.6379 30.7328H41.8535L50.2457 17Z" fill="white" />
    <circle cx="72.625" cy="23.8664" r="6.86638" fill="white" />
    <rect x="21" y="21.5776" width="59" height="1.52586" fill="#1D1C28" />
    <rect x="21" y="24.1206" width="59" height="1.52586" fill="#1D1C28" />
    <path d="M26.1211 111H25.457V108.312H22.4492V111H21.7852V105.289H22.4492V107.719H25.457V105.289H26.1211V111ZM31.2891 108.855C31.2891 109.553 31.1133 110.099 30.7617 110.492C30.4102 110.883 29.9245 111.078 29.3047 111.078C28.9219 111.078 28.582 110.988 28.2852 110.809C27.9883 110.629 27.7591 110.371 27.5977 110.035C27.4362 109.699 27.3555 109.306 27.3555 108.855C27.3555 108.158 27.5299 107.615 27.8789 107.227C28.2279 106.836 28.7122 106.641 29.332 106.641C29.931 106.641 30.4062 106.84 30.7578 107.238C31.112 107.637 31.2891 108.176 31.2891 108.855ZM28.0273 108.855C28.0273 109.402 28.1367 109.819 28.3555 110.105C28.5742 110.392 28.8958 110.535 29.3203 110.535C29.7448 110.535 30.0664 110.393 30.2852 110.109C30.5065 109.823 30.6172 109.405 30.6172 108.855C30.6172 108.311 30.5065 107.898 30.2852 107.617C30.0664 107.333 29.7422 107.191 29.3125 107.191C28.888 107.191 28.5677 107.331 28.3516 107.609C28.1354 107.888 28.0273 108.303 28.0273 108.855ZM37.8867 111V108.215C37.8867 107.874 37.8138 107.618 37.668 107.449C37.5221 107.277 37.2956 107.191 36.9883 107.191C36.5846 107.191 36.2865 107.307 36.0938 107.539C35.901 107.771 35.8047 108.128 35.8047 108.609V111H35.1562V108.215C35.1562 107.874 35.0833 107.618 34.9375 107.449C34.7917 107.277 34.5638 107.191 34.2539 107.191C33.8477 107.191 33.5495 107.314 33.3594 107.559C33.1719 107.801 33.0781 108.199 33.0781 108.754V111H32.4297V106.719H32.957L33.0625 107.305H33.0938C33.2161 107.096 33.388 106.934 33.6094 106.816C33.8333 106.699 34.0833 106.641 34.3594 106.641C35.0286 106.641 35.4661 106.883 35.6719 107.367H35.7031C35.8307 107.143 36.0156 106.966 36.2578 106.836C36.5 106.706 36.776 106.641 37.0859 106.641C37.5703 106.641 37.9323 106.766 38.1719 107.016C38.4141 107.263 38.5352 107.66 38.5352 108.207V111H37.8867ZM41.6836 111.078C41.0508 111.078 40.5508 110.885 40.1836 110.5C39.819 110.115 39.6367 109.579 39.6367 108.895C39.6367 108.204 39.806 107.656 40.1445 107.25C40.4857 106.844 40.9427 106.641 41.5156 106.641C42.0521 106.641 42.4766 106.818 42.7891 107.172C43.1016 107.523 43.2578 107.988 43.2578 108.566V108.977H40.3086C40.3216 109.479 40.4479 109.861 40.6875 110.121C40.9297 110.382 41.2695 110.512 41.707 110.512C42.168 110.512 42.6237 110.415 43.0742 110.223V110.801C42.8451 110.9 42.6276 110.97 42.4219 111.012C42.2188 111.056 41.9727 111.078 41.6836 111.078ZM41.5078 107.184C41.1641 107.184 40.8893 107.296 40.6836 107.52C40.4805 107.743 40.3607 108.053 40.3242 108.449H42.5625C42.5625 108.04 42.4714 107.728 42.2891 107.512C42.1068 107.293 41.8464 107.184 41.5078 107.184Z" fill="white" />
    <path d="M25.0078 126.48C25.0078 126.983 24.8255 127.375 24.4609 127.656C24.0964 127.938 23.6016 128.078 22.9766 128.078C22.2995 128.078 21.7786 127.991 21.4141 127.816V127.176C21.6484 127.275 21.9036 127.353 22.1797 127.41C22.4557 127.467 22.7292 127.496 23 127.496C23.4427 127.496 23.776 127.413 24 127.246C24.224 127.077 24.3359 126.842 24.3359 126.543C24.3359 126.345 24.2956 126.184 24.2148 126.059C24.1367 125.931 24.0039 125.814 23.8164 125.707C23.6315 125.6 23.349 125.479 22.9688 125.344C22.4375 125.154 22.0573 124.928 21.8281 124.668C21.6016 124.408 21.4883 124.068 21.4883 123.648C21.4883 123.208 21.6536 122.858 21.9844 122.598C22.3151 122.337 22.7526 122.207 23.2969 122.207C23.8646 122.207 24.3867 122.311 24.8633 122.52L24.6562 123.098C24.1849 122.9 23.7266 122.801 23.2812 122.801C22.9297 122.801 22.6549 122.876 22.457 123.027C22.2591 123.178 22.1602 123.388 22.1602 123.656C22.1602 123.854 22.1966 124.017 22.2695 124.145C22.3424 124.27 22.4648 124.385 22.6367 124.492C22.8112 124.596 23.0768 124.712 23.4336 124.84C24.0326 125.053 24.444 125.283 24.668 125.527C24.8945 125.772 25.0078 126.09 25.0078 126.48ZM27.7891 128.078C27.1693 128.078 26.6888 127.888 26.3477 127.508C26.0091 127.125 25.8398 126.585 25.8398 125.887C25.8398 125.171 26.0117 124.617 26.3555 124.227C26.7018 123.836 27.194 123.641 27.832 123.641C28.0378 123.641 28.2435 123.663 28.4492 123.707C28.6549 123.751 28.8164 123.803 28.9336 123.863L28.7344 124.414C28.5911 124.357 28.4349 124.31 28.2656 124.273C28.0964 124.234 27.9466 124.215 27.8164 124.215C26.9466 124.215 26.5117 124.77 26.5117 125.879C26.5117 126.405 26.6172 126.809 26.8281 127.09C27.0417 127.371 27.3568 127.512 27.7734 127.512C28.1302 127.512 28.4961 127.435 28.8711 127.281V127.855C28.5846 128.004 28.224 128.078 27.7891 128.078ZM32.5234 128L32.3945 127.391H32.3633C32.1497 127.659 31.9362 127.841 31.7227 127.938C31.5117 128.031 31.2474 128.078 30.9297 128.078C30.5052 128.078 30.1719 127.969 29.9297 127.75C29.6901 127.531 29.5703 127.22 29.5703 126.816C29.5703 125.952 30.2617 125.499 31.6445 125.457L32.3711 125.434V125.168C32.3711 124.832 32.2982 124.585 32.1523 124.426C32.0091 124.264 31.7786 124.184 31.4609 124.184C31.1042 124.184 30.7005 124.293 30.25 124.512L30.0508 124.016C30.2617 123.901 30.4922 123.811 30.7422 123.746C30.9948 123.681 31.2474 123.648 31.5 123.648C32.0104 123.648 32.388 123.762 32.6328 123.988C32.8802 124.215 33.0039 124.578 33.0039 125.078V128H32.5234ZM31.0586 127.543C31.4622 127.543 31.7786 127.432 32.0078 127.211C32.2396 126.99 32.3555 126.68 32.3555 126.281V125.895L31.707 125.922C31.1914 125.94 30.819 126.021 30.5898 126.164C30.3633 126.305 30.25 126.525 30.25 126.824C30.25 127.059 30.3203 127.237 30.4609 127.359C30.6042 127.482 30.8034 127.543 31.0586 127.543ZM37.2734 128V125.23C37.2734 124.882 37.194 124.621 37.0352 124.449C36.8763 124.277 36.6276 124.191 36.2891 124.191C35.8411 124.191 35.513 124.312 35.3047 124.555C35.0964 124.797 34.9922 125.197 34.9922 125.754V128H34.3438V123.719H34.8711L34.9766 124.305H35.0078C35.1406 124.094 35.3268 123.931 35.5664 123.816C35.806 123.699 36.0729 123.641 36.3672 123.641C36.8828 123.641 37.2708 123.766 37.5312 124.016C37.7917 124.263 37.9219 124.66 37.9219 125.207V128H37.2734Z" fill="white" />
</svg>